<svg xmlns="http://www.w3.org/2000/svg" width="20" height="20" viewBox="0 0 20 20">
  <path fill="#102942" d="M10,0 C4.47704545,0 0,4.47727273 0,10 C0,15.5229545 4.47704545,20 10,20 C15.5229545,20 20,15.5229545 20,10 C20,4.47727273 15.5229545,0 10,0 Z M10,18.1818182 C5.48136364,18.1818182 1.81818182,14.5188636 1.81818182,10 C1.81818182,5.48136364 5.48136364,1.81818182 10,1.81818182 C14.5186364,1.81818182 18.1818182,5.48136364 18.1818182,10 C18.1818182,14.5188636 14.5186364,18.1818182 10,18.1818182 Z M13.37,12.0845455 C13.725,12.4395455 13.725,13.0152273 13.37,13.3702273 C13.1927273,13.5475 12.9597727,13.6363636 12.7272727,13.6363636 C12.4947727,13.6365909 12.2620455,13.5477273 12.0845455,13.3702273 L9.35727273,10.6429545 C9.18681818,10.4725 9.09090909,10.2413636 9.09090909,10 L9.09090909,4.54545455 C9.09090909,4.04340909 9.49795455,3.63636364 10,3.63636364 C10.5020455,3.63636364 10.9090909,4.04340909 10.9090909,4.54545455 L10.9090909,9.62363636 L13.37,12.0845455 Z"/>
</svg>
