<svg xmlns="http://www.w3.org/2000/svg" width="30" height="22" viewBox="0 0 30 22">
  <g fill="none" fill-rule="evenodd">
    <path fill="#FFF" fill-rule="nonzero" d="M25.3005367,3.77384615 C25.0216011,3.05461538 24.6496869,2.44538462 24.0411002,1.83615385 C23.4325134,1.22692308 22.8239267,0.854615385 22.1054562,0.575384615 C21.4123435,0.304615385 20.609347,0.118461538 19.4513417,0.0676923077 C18.2848837,0.0169230769 17.9129696,0 14.9376565,0 C11.9623435,0 11.5904293,0.00846153846 10.4239714,0.0676923077 C9.25751342,0.118461538 8.46296959,0.304615385 7.76985689,0.575384615 C7.0513864,0.854615385 6.44279964,1.22692308 5.83421288,1.83615385 C5.22562612,2.44538462 4.85371199,3.05461538 4.57477639,3.77384615 C4.30429338,4.46769231 4.11833631,5.27153846 4.06762075,6.43076923 C4.01690519,7.59846154 4,7.97076923 4,10.9492308 C4,13.9276923 4.00845259,14.3 4.06762075,15.4676923 C4.11833631,16.6353846 4.30429338,17.4307692 4.57477639,18.1246154 C4.85371199,18.8438462 5.22562612,19.4530769 5.83421288,20.0623077 C6.44279964,20.6715385 7.0513864,21.0438462 7.76985689,21.3230769 C8.46296959,21.5938462 9.26596601,21.78 10.4239714,21.8307692 C11.5904293,21.8815385 11.9623435,21.8984615 14.9376565,21.8984615 C17.9129696,21.8984615 18.2848837,21.89 19.4513417,21.8307692 C20.6177996,21.78 21.4123435,21.5938462 22.1054562,21.3230769 C22.8239267,21.0438462 23.4325134,20.6715385 24.0411002,20.0623077 C24.6496869,19.4530769 25.0216011,18.8438462 25.3005367,18.1246154 C25.5710197,17.4307692 25.7569767,16.6269231 25.8076923,15.4676923 C25.8584079,14.3 25.8753131,13.9276923 25.8753131,10.9492308 C25.8753131,7.97076923 25.8668605,7.59846154 25.8076923,6.43076923 C25.7569767,5.26307692 25.5710197,4.46769231 25.3005367,3.77384615 Z M23.8382379,15.3746154 C23.7875224,16.4407692 23.6100179,17.0246154 23.4578712,17.4053846 C23.2634615,17.9130769 23.0183363,18.2853846 22.6379696,18.6661538 C22.2576029,19.0469231 21.8941413,19.2838462 21.3785331,19.4869231 C20.9897138,19.6392308 20.4149374,19.8169231 19.3499106,19.8676923 C18.1919052,19.9184615 17.8538014,19.9353846 14.9292039,19.9353846 C12.0046064,19.9353846 11.6580501,19.9269231 10.5084973,19.8676923 C9.44347048,19.8169231 8.8602415,19.6392308 8.47987478,19.4869231 C7.97271914,19.2923077 7.60080501,19.0469231 7.22043828,18.6661538 C6.84007156,18.2853846 6.60339893,17.9215385 6.40053667,17.4053846 C6.24838998,17.0161538 6.07088551,16.4407692 6.02016995,15.3746154 C5.96945438,14.2153846 5.95254919,13.8684615 5.95254919,10.9492308 C5.95254919,8.03 5.96100179,7.67461538 6.02016995,6.52384615 C6.07088551,5.45769231 6.24838998,4.87384615 6.40053667,4.49307692 C6.59494633,3.98538462 6.84007156,3.61307692 7.22043828,3.23230769 C7.60080501,2.85153846 7.96426655,2.61461538 8.47987478,2.41153846 C8.8686941,2.25923077 9.44347048,2.08153846 10.5084973,2.03076923 C11.6665027,1.98 12.013059,1.96307692 14.9292039,1.96307692 C17.8453488,1.96307692 18.2003578,1.97153846 19.3499106,2.03076923 C20.4149374,2.08153846 20.9981664,2.25923077 21.3785331,2.41153846 C21.8856887,2.60615385 22.2576029,2.85153846 22.6379696,3.23230769 C23.0183363,3.61307692 23.2550089,3.97692308 23.4578712,4.49307692 C23.6100179,4.88230769 23.7875224,5.45769231 23.8382379,6.52384615 C23.8889535,7.68307692 23.9058587,8.03 23.9058587,10.9492308 C23.9058587,13.8684615 23.8889535,14.2238462 23.8382379,15.3746154 Z"/>
    <path fill="#FFF" fill-rule="nonzero" d="M14.9292039,5.32230769 C11.827102,5.32230769 9.30822898,7.84384615 9.30822898,10.9492308 C9.30822898,14.0546154 11.827102,16.5761538 14.9292039,16.5761538 C18.0313059,16.5761538 20.5501789,14.0546154 20.5501789,10.9492308 C20.5501789,7.84384615 18.0313059,5.32230769 14.9292039,5.32230769 Z M14.9292039,14.6046154 C12.9174866,14.6046154 11.2776834,12.9715385 11.2776834,10.9492308 C11.2776834,8.93538462 12.909034,7.29384615 14.9292039,7.29384615 C16.9493739,7.29384615 18.5807245,8.92692308 18.5807245,10.9492308 C18.5807245,12.9630769 16.9409213,14.6046154 14.9292039,14.6046154 Z"/>
    <ellipse cx="20.77" cy="5.102" fill="#FFF" fill-rule="nonzero" rx="1.31" ry="1.312"/>
  </g>
</svg>
