<svg xmlns="http://www.w3.org/2000/svg" width="201" height="39" viewBox="0 0 201 39">
  <defs>
    <linearGradient id="logo-a" x1="50%" x2="50%" y1="0%" y2="100%">
      <stop offset="0%" stop-color="#FFF" stop-opacity="0"/>
      <stop offset=".38%" stop-color="#FDFEFE" stop-opacity=".001"/>
      <stop offset="10.18%" stop-color="#CDDEEF" stop-opacity=".031"/>
      <stop offset="20.38%" stop-color="#A2C3E2" stop-opacity=".061"/>
      <stop offset="31.08%" stop-color="#7EABD6" stop-opacity=".093"/>
      <stop offset="42.25%" stop-color="#6198CD" stop-opacity=".127"/>
      <stop offset="54.04%" stop-color="#4A8AC6" stop-opacity=".162"/>
      <stop offset="66.74%" stop-color="#3A7FC1" stop-opacity=".2"/>
      <stop offset="80.99%" stop-color="#3079BE" stop-opacity=".243"/>
      <stop offset="100%" stop-color="#2D77BD" stop-opacity=".3"/>
    </linearGradient>
  </defs>
  <g fill="none">
    <g fill="#2D77BD" transform="translate(122.723 1.702)">
      <path d="M6.5612766,0.0959659574 L0.0755744681,13.963217 L3.73708936,13.963217 L4.97213617,11.1002213 L11.1159149,11.1002213 L12.3458383,13.963217 L15.9489702,13.963217 L9.44384681,0.0959659574 L6.5612766,0.0959659574 Z M6.15681702,8.35395745 L8.05041702,3.96435745 L9.93615319,8.35395745 L6.15681702,8.35395745 Z"/>
      <polygon points="24.833 6.387 24.833 4.069 16.146 4.069 16.146 6.659 20.612 6.659 16.127 11.49 16.127 13.963 25.027 13.963 25.027 11.353 20.228 11.353"/>
      <path d="M32.245583 9.48364255C32.245583 10.0678809 32.092766 10.5353872 31.7877787 10.8859574 31.4826383 11.2365447 31.0834043 11.4118298 30.5900426 11.4118298 30.1615149 11.4118298 29.8432681 11.2918638 29.6356426 11.0515574 29.4278468 10.8114213 29.324034 10.4446809 29.324034 9.95097872L29.324034 4.06907234 25.7988426 4.06907234 25.7988426 9.85361702C25.7988426 11.2948936 26.1070468 12.3662128 26.723966 13.0673532 27.3405447 13.7685106 28.2787574 14.1190979 29.5382979 14.1190979 30.2522213 14.1190979 30.8725277 13.9504511 31.3984 13.6126298 31.7798638 13.3678298 32.1005957 13.0432851 32.3625021 12.6412255L32.3625021 13.963217 35.8097532 13.963217 35.8097532 4.06907234 32.245583 4.06907234 32.245583 9.48364255 32.245583 9.48364255zM43.255166 3.83540426C42.5019404 3.83540426 41.8300426 4.06277447 41.2393362 4.51715745 40.8433191 4.82173617 40.5533957 5.22764255 40.3645277 5.73031489L40.1583319 4.06907234 36.847234 4.06907234C36.9120851 4.5365617 36.9544511 5.01068936 36.9738553 5.4909617 36.9934298 5.97138723 37.0031149 6.44517447 37.0031149 6.91266383L37.0031149 13.9632 40.5284766 13.9632 40.5284766 8.99673191C40.5284766 8.50335319 40.6190128 8.10071489 40.8011064 7.78910638 40.9826894 7.47749787 41.2359319 7.24706383 41.5606298 7.09765106 41.8850043 6.9485617 42.2813617 6.87368511 42.7486809 6.87368511 43.2679149 6.87368511 43.8068936 7.00371064 44.3652596 7.26323404L44.3652596 4.04966809C44.2354213 3.98483404 44.0795234 3.93274894 43.8977702 3.89378723 43.7158468 3.85480851 43.501583 3.83540426 43.255166 3.83540426zM54.2905702 8.89923404C54.2905702 7.86061277 54.1021617 6.95829787 53.7257191 6.19211915 53.3489362 5.42612766 52.8133617 4.83542128 52.1188426 4.41965957 51.4241362 4.0042383 50.6026723 3.79644255 49.6550979 3.79644255 48.6812936 3.79644255 47.8242553 4.01734468 47.0841362 4.45862128 46.344 4.90025532 45.7628255 5.51036596 45.3409362 6.28946383 44.9188766 7.06857872 44.708017 7.96440851 44.708017 8.97717447 44.708017 10.0289191 44.9285787 10.9412596 45.3702128 11.7137191 45.8114894 12.4863489 46.4444085 13.0802894 47.2691234 13.4957106 48.0934979 13.9114723 49.0771574 14.1190979 50.2199489 14.1190979 50.9211064 14.1190979 51.6222638 14.0183489 52.3234043 13.8171915 53.0245787 13.616034 53.621566 13.327234 54.1152851 12.9504511L53.2192511 10.6133106C52.8297021 10.8990468 52.3848511 11.1229957 51.8851915 11.2851915 51.3851915 11.4477106 50.8884255 11.5285447 50.395234 11.5285447 49.5771574 11.5285447 48.9798128 11.3113872 48.6033702 10.8762383 48.3163404 10.5448681 48.1395915 10.0409702 48.0713021 9.36670638L54.2905702 9.36670638 54.2905702 8.89923404 54.2905702 8.89923404zM49.7524426 6.2115234C50.2589106 6.2115234 50.6450553 6.38374468 50.911217 6.72769362 51.0998128 6.97169362 51.2204085 7.30726809 51.2754043 7.73075745L48.121583 7.73075745C48.1932085 7.36134468 48.3104681 7.05775319 48.4767319 6.8250383 48.7689532 6.41608511 49.1940596 6.2115234 49.7524426 6.2115234z"/>
    </g>
    <path fill="#9A306E" d="M9.77045106.951761702C8.6666383.400017021 7.34226383.123982979 5.79717447.123982979L.129378723.123982979.129378723 13.9914043 5.79717447 13.9914043C7.3552 13.9914043 8.68604255 13.7156936 9.78985532 13.1636255 10.8933277 12.6118809 11.737617 11.816783 12.3218553 10.7778213 12.9060936 9.73918298 13.1983149 8.49259574 13.1983149 7.03819574 13.1983149 5.59691915 12.9028596 4.36018723 12.3121532 3.32801702 11.7211064 2.29569362 10.8739234 1.50382979 9.77045106.951761702zM8.57252766 10.0667915C7.90371064 10.7357787 6.89417872 11.0698553 5.54393191 11.0698553L3.79104681 11.0698553 3.79104681 3.04553191 5.54393191 3.04553191C8.23164255 3.04553191 9.57559149 4.37669787 9.57559149 7.03821277 9.57559149 8.38878298 9.24117447 9.39831489 8.57252766 10.0667915zM21.1169872 5.35443404C20.8809532 4.97123404 20.5477957 4.6456 20.1139574 4.3797617 19.5101447 4.00961702 18.8314383 3.82462979 18.0785532 3.82462979 17.234434 3.82462979 16.4845957 4.04551489 15.8290553 4.48680851 15.1731745 4.92842553 14.6571745 5.54194043 14.2807319 6.32735319 13.9039489 7.11308936 13.7158979 8.02510638 13.7158979 9.06372766 13.7158979 10.0897702 13.9008681 10.985617 14.2708596 11.7516085 14.6410213 12.5179404 15.1571915 13.1084766 15.8193702 13.5238979 16.4815489 13.9396596 17.234434 14.1472851 18.0785532 14.1472851 18.8314383 14.1472851 19.5101447 13.972 20.1139574 13.6214128 20.5477957 13.3695149 20.8809532 13.0495149 21.1169872 12.6635234L21.1169872 13.9913872 24.5838298 13.9913872 24.5838298 4.09724255 21.1169872 4.09724255 21.1169872 5.35443404zM20.600817 10.875166C20.2567319 11.3036936 19.7795064 11.5179574 19.1692596 11.5179574 18.5329191 11.5179574 18.0460255 11.3069277 17.7085787 10.8848681 17.3707574 10.463166 17.2020936 9.85594894 17.2020936 9.06372766 17.2020936 8.24582128 17.3773787 7.61274894 17.727966 7.16481702 18.0785532 6.71688511 18.5588085 6.49293617 19.1692766 6.49293617 19.7926638 6.49293617 20.2727489 6.7072 20.6105532 7.13554043 20.948034 7.56406809 21.1169872 8.1940766 21.1169872 9.02491915 21.1169872 9.83005957 20.944766 10.4466383 20.600817 10.875166zM33.2565617 4.09725957L30.9546553 9.8093617 28.7379915 4.09725957 25.0765106 4.09725957 29.1048851 13.3074553 28.8549277 13.8550979C28.6990128 14.1794553 28.4975489 14.4619745 28.2511149 14.7022638 28.0043064 14.9424 27.6828426 15.1469447 27.2870128 15.3157787 26.8908255 15.4844255 26.3877447 15.6273872 25.777617 15.7442894L26.5955234 18.432C27.413634 18.3411234 28.1665021 18.1527319 28.8549106 17.867166 29.5429447 17.5814298 30.1661617 17.1593702 30.7247149 16.6013277 31.2827234 16.0427915 31.769634 15.2895489 32.1853957 14.3419745L36.7233362 4.09725957 33.2565617 4.09725957z" transform="translate(163.234 19.064)"/>
    <g transform="translate(0 .851)">
      <path fill="#9A306E" d="M44.2608681 8.19307234C43.9892255 7.64665532 43.3260596 7.42391489 42.7796766 7.69554043L36.1611574 11.0049532C36.6422809 12.6154043 36.9044596 14.3193362 36.9044596 16.0839319 36.9044596 17.8485447 36.6422809 19.5524766 36.1611574 21.1629447L42.7796596 24.472034C42.9321362 24.548017 43.1001362 24.5877106 43.2705191 24.5879843 43.8803064 24.5889191 44.3754213 24.0953362 44.3763745 23.4854979L44.3763745 8.68277447C44.3760511 8.51283404 44.3365277 8.34524255 44.2608681 8.19307234zM35.2077447 16.083234C35.2077447 15.9091745 35.204 15.736 35.1985021 15.5632681 35.1969702 15.515183 35.1949787 15.4672681 35.1930213 15.4193021 35.1873532 15.2797957 35.1799319 15.140766 35.1707234 15.0021787 35.1683064 14.9659234 35.1664851 14.9295149 35.1638298 14.8933277 35.1513702 14.7229957 35.1361532 14.5534298 35.118434 14.3846298 35.1145872 14.347983 35.1099915 14.3115574 35.1059064 14.2749787 35.090383 14.1363234 35.0731064 13.9982128 35.0540766 13.8606298 35.0482213 13.8182298 35.0424851 13.7758128 35.0362894 13.7335149 34.986417 13.3930213 34.9257872 13.0560681 34.8549447 12.7228596 34.8472 12.6864851 34.839234 12.6502298 34.831234 12.6139574 34.7977362 12.461617 34.762366 12.3099915 34.7245787 12.1593191 34.7209362 12.1448511 34.717634 12.1302638 34.7139574 12.1158128 34.6704851 11.9445277 34.6240681 11.7744511 34.575166 11.6053957 34.5700085 11.5875915 34.5645447 11.5699234 34.5593362 11.5521532 34.5140085 11.3975319 34.4663489 11.2439149 34.4165277 11.0912511 34.4104851 11.0727489 34.4046128 11.0541787 34.3985021 11.0357106 34.2861957 10.6957277 34.1627404 10.3609021 34.028783 10.0313702 34.0254128 10.0230638 34.0219915 10.0147745 34.0186043 10.0064681 31.6217872 4.13848511 25.8594043.00258723404 19.1297362 0L19.1297362 0 15.9504851 0 15.9504851.00721702128C7.2037617.164578723.160493617 7.29937021.160493617 16.0836766.160493617 16.0837106.160493617 16.0837447.160493617 16.0837617.160493617 16.0837787.160493617 16.0838298.160493617 16.0838468.160493617 24.8681532 7.2037617 32.0029447 15.9504851 32.1603064L15.9504851 32.1675234 19.1297362 32.1675234 19.1297362 32.1673702C19.3571404 32.1672851 19.5831319 32.1613106 19.8082383 32.1518638L23.7471319 36.3693106C23.9106383 36.5441191 24.1465532 36.6447495 24.3946043 36.6447495 24.8708426 36.6452766 25.2573617 36.2838809 25.2579234 35.837583L25.2579234 30.9550979C27.530417 30.0167319 29.5390468 28.5711149 31.1474043 26.7618213 31.1509106 26.7578894 31.154383 26.7539404 31.1578723 26.7500085 31.2738043 26.6193191 31.3876936 26.4868936 31.4993872 26.3524766 31.5049702 26.3457702 31.5104681 26.3389957 31.516034 26.3322723 31.6262979 26.1991319 31.7346553 26.0644085 31.8406468 25.9277106 31.8459915 25.920817 31.8512 25.9138213 31.8565447 25.9069106 31.9630128 25.7691404 32.0676255 25.6298723 32.1696851 25.4885957 32.1718638 25.485566 32.1739745 25.4824851 32.1761532 25.4794723 32.7886128 24.6303489 33.3197277 23.7191149 33.7592681 22.7569362 33.7776851 22.7166468 33.7970043 22.6768681 33.8151149 22.6364085 33.8657872 22.5229957 33.9138383 22.4082043 33.9619234 22.2934298 33.988034 22.231183 34.0148596 22.1693106 34.0402043 22.1066723 34.0825702 22.0018553 34.1227404 21.895983 34.1629617 21.7900936 34.1910979 21.7160681 34.2195574 21.6422298 34.2466213 21.5676936 34.2829277 21.4676426 34.3174468 21.3667745 34.3518128 21.2657872 34.3797447 21.1837617 34.4075915 21.1017532 34.4342128 21.0191319 34.4654468 20.9221787 34.4953021 20.8246638 34.5247489 20.7269447 34.5513702 20.6386553 34.5774809 20.5501447 34.6026043 20.4612085 34.6293106 20.3666213 34.6550468 20.2716766 34.6800511 20.1763915 34.7046298 20.0828255 34.7282723 19.9889021 34.7512 19.8946723 34.7737702 19.8018553 34.7957617 19.7088511 34.8167149 19.6154043 34.8388085 19.5169191 34.8595404 19.4179745 34.8798128 19.3188255 34.898383 19.2279319 34.916817 19.1370213 34.9338383 19.0456 34.9531234 18.9420766 34.9706213 18.8379404 34.9879149 18.7337362 35.0026213 18.6450723 35.017634 18.5565447 35.0308766 18.4673872 35.0471319 18.3580596 35.0611234 18.248034 35.075183 18.1379915 35.0860766 18.0525277 35.0977362 17.9673191 35.1072851 17.8814298 35.1203234 17.7642723 35.1306043 17.6463319 35.1411234 17.5284085 35.1482553 17.4484596 35.1565787 17.3688681 35.1625191 17.2885787 35.1723404 17.155983 35.1788766 17.0225021 35.1854638 16.8890383 35.1887489 16.8223149 35.1936681 16.7560511 35.1961362 16.6891064 35.2035745 16.4882383 35.2077447 16.2865362 35.2077447 16.0838468 35.2077447 16.0838128 35.2077447 16.0837787 35.2077447 16.0837277 35.2077447 16.0837106 35.2077447 16.0836766 35.2077447 16.0836596 35.2077447 16.0835234 35.2077447 16.0833872 35.2077447 16.083234z" transform="translate(4.255)"/>
      <path fill="#2D77BD" d="M20.2058213 32.1603404C11.4590979 32.0029787 4.41582979 24.8681872 4.41582979 16.0838809 4.41582979 16.0838468 4.41582979 16.0838128 4.41582979 16.0837957 4.41582979 16.0837787 4.41582979 16.0837277 4.41582979 16.0837106 4.41582979 7.44277447 11.2311149.398161702 19.7789787.0207148936 19.5107234.00731914894 19.240783 0 18.9692255 0L18.9692255 0 15.7899745 0 15.7899745.0074212766C7.04325106.164782979 0 7.29957447 0 16.0838638 0 24.8681702 7.04325106 32.0029617 15.7899745 32.1603234L20.2058213 32.1642213 20.2058213 32.1603404zM23.4007149 32.1670468L23.9828936 32.1675574 24.0014809 32.1533277C23.8020255 32.1611064 23.6020085 32.1667404 23.4007149 32.1670468z"/>
      <path fill="#841C53" d="M18.13,8.1469078 L3.32733333,0.745177305 C2.78093617,0.47351773 2.11777305,0.696326241 1.84611348,1.2427234 C1.7704539,1.39493617 1.73093617,1.56243972 1.7306383,1.73242553 L0.709333333,18.5778014 C0.71022695,19.1876454 1.20539007,19.6812199 1.81523404,19.6802284 C1.98561702,19.6799291 2.15361702,19.6403121 2.30612766,19.5642553 L18.1301986,10.1205106 C18.6752057,9.84785816 18.8960284,9.18499291 18.6233759,8.63998582 C18.516539,8.42670922 18.3434752,8.25364539 18.13,8.1469078 Z" transform="translate(12.908 6.95)"/>
      <path fill="#FFF" d="M17.1370922,8.1469078 L2.33442553,0.745177305 C1.78802837,0.47351773 1.12486525,0.696326241 0.853205674,1.2427234 C0.777546099,1.39493617 0.738028369,1.56243972 0.737730496,1.73242553 L0.737730496,16.5351915 C0.738624113,17.1450355 1.23378723,17.6386099 1.84363121,17.6376185 C2.01401418,17.6373191 2.18201418,17.5977021 2.33452482,17.5216454 L17.1372908,10.1206099 C17.6822979,9.84795745 17.9031206,9.1850922 17.6304681,8.64008511 C17.5236312,8.42670922 17.3505674,8.25364539 17.1370922,8.1469078 Z" transform="translate(13.9 6.95)"/>
      <path fill="url(#logo-a)" d="M14.638383,23.4855149 C14.6393362,24.0953191 15.134434,24.5889191 15.7442383,24.5879843 C15.9146043,24.5877277 16.0826043,24.548034 16.2350979,24.472034 L31.0378213,17.0710128 L14.638383,22.8394383 L14.638383,23.4855149 Z"/>
    </g>
    <g fill="#9A306E" transform="translate(55.32 17.532)">
      <path d="M7.19305532 4.36318298C7.79022979 4.36318298 8.37446809 4.46052766 8.94595745 4.65538723 9.51725957 4.8500766 10.1014979 5.16168511 10.6988426 5.59021277L11.8091234 2.99984681C11.2895489 2.53235745 10.6045617 2.16236596 9.75431489 1.88973617 8.90374468 1.61693617 8.02388085 1.48061277 7.11511489 1.48061277 5.66088511 1.48061277 4.40119149 1.77622128 3.33669787 2.36692766 2.27186383 2.95780426 1.45055319 3.78558298.872953191 4.8500766.295012766 5.91491064.00621276596 7.15504681.00621276596 8.57012766.00621276596 9.99865532.295012766 11.2481362.872953191 12.3194383 1.45055319 13.3905872 2.27186383 14.2217532 3.33669787 14.8124596 4.40119149 15.4033362 5.66090213 15.6986043 7.11511489 15.6986043 8.02389787 15.6986043 8.90374468 15.5622809 9.75431489 15.2896511 10.6045617 15.016834 11.2895489 14.6468596 11.8091234 14.1793702L10.6988426 11.5890043C10.1014979 12.0175319 9.51725957 12.3291404 8.94595745 12.524 8.37446809 12.7186894 7.79022979 12.816034 7.19305532 12.816034 6.08924255 12.816034 5.23559149 12.4591489 4.63196596 11.7448851 4.02815319 11.0309617 3.72626383 9.97242553 3.72626383 8.57011064 3.72626383 7.16779574 4.02817021 6.11606809 4.63196596 5.41489362 5.23559149 4.71375319 6.08924255 4.36318298 7.19305532 4.36318298zM20.5131574 5.98944681C19.7015489 5.56774468 18.7505702 5.35654468 17.6598468 5.35654468 16.5429447 5.35654468 15.5788426 5.56774468 14.7675745 5.98944681 13.955966 6.4116766 13.3293447 7.00902128 12.8880681 7.78131064 12.4464511 8.55394043 12.2258894 9.46612766 12.2258894 10.5178723 12.2258894 11.5827064 12.4464511 12.5013617 12.8880681 13.2738213 13.3293447 14.0464511 13.955966 14.6403915 14.7675745 15.0558128 15.5788426 15.4715745 16.5429277 15.6792 17.6598468 15.6792 18.7505702 15.6792 19.7015489 15.4715745 20.5131574 15.0558128 21.3244255 14.6403915 21.9510468 14.0464511 22.3926638 13.2738213 22.8339404 12.5013617 23.0548426 11.5827064 23.0548426 10.5178723 23.0548426 9.46612766 22.8339404 8.55395745 22.3926638 7.78131064 21.9510468 7.00902128 21.3244255 6.4116766 20.5131574 5.98944681zM19.0718638 12.4460426C18.7408681 12.8486979 18.2699574 13.0498553 17.6598468 13.0498553 17.0235404 13.0498553 16.5398809 12.8486979 16.2088681 12.4460426 15.8776851 12.0437277 15.7121021 11.4009362 15.7121021 10.5178553 15.7121021 9.64805106 15.8776851 9.01172766 16.2088681 8.60907234 16.5398809 8.20675745 17.0235404 8.00525957 17.6598468 8.00525957 18.2830638 8.00525957 18.7568511 8.20675745 19.081566 8.60907234 19.4061106 9.01172766 19.5684596 9.64805106 19.5684596 10.5178553 19.5684596 11.4009532 19.4030468 12.0437447 19.0718638 12.4460426zM36.4997957 5.35654468C35.7465702 5.35654468 35.061566 5.55123404 34.4449872 5.94078298 33.9389277 6.26034043 33.5329362 6.66444255 33.2236936 7.14990638 33.0354723 6.69867234 32.7808 6.33077447 32.4582638 6.048 31.9323915 5.58713191 31.228 5.35654468 30.3450894 5.35654468 29.5659745 5.35654468 28.8940936 5.53182979 28.3292596 5.88241702 27.8682213 6.1685617 27.5016681 6.54711489 27.2267234 7.01491064L27.053566 5.62917447 23.7424681 5.62917447C23.8073021 6.09668085 23.8496851 6.57080851 23.8690894 7.05106383 23.8886468 7.53148936 23.8983489 8.00529362 23.8983489 8.47278298L23.8983489 15.5233532 27.4237106 15.5233532 27.4237106 10.1477277C27.4237106 9.48554894 27.5566298 8.97278298 27.8229617 8.60908936 28.0889532 8.24575319 28.4686298 8.06382979 28.9623319 8.06382979 29.3777532 8.06382979 29.6731915 8.19707234 29.8484766 8.46308085 30.0237617 8.72924255 30.1114043 9.14808511 30.1114043 9.71921702L30.1114043 15.5233532 33.6365957 15.5233532 33.6365957 10.1477447C33.6365957 9.48556596 33.7729021 8.9728 34.0457191 8.60910638 34.3183489 8.24577021 34.7010894 8.06384681 35.1948085 8.06384681 35.6233362 8.06384681 35.9218213 8.19708936 36.0906553 8.46309787 36.2593021 8.72925957 36.3438809 9.14810213 36.3438809 9.71923404L36.3438809 15.5233532 39.8692255 15.5233532 39.8692255 9.62188936C39.8692255 8.19370213 39.5964255 7.12580426 39.0511489 6.41800851 38.5059404 5.71051915 37.6553532 5.35654468 36.4997957 5.35654468zM53.5764255 5.35654468C52.8232 5.35654468 52.1381957 5.55123404 51.521617 5.94078298 51.0155574 6.26034043 50.609566 6.66444255 50.3003234 7.14990638 50.1121021 6.69867234 49.8574298 6.33077447 49.5348936 6.048 49.0090213 5.58713191 48.3046298 5.35654468 47.4217191 5.35654468 46.6426043 5.35654468 45.9707234 5.53182979 45.4058894 5.88241702 44.9448511 6.1685617 44.5782979 6.54711489 44.3033532 7.01491064L44.1301957 5.62917447 40.8190979 5.62917447C40.8839319 6.09668085 40.9263149 6.57080851 40.9457021 7.05106383 40.9652766 7.53148936 40.9749787 8.00529362 40.9749787 8.47278298L40.9749787 15.5233532 44.5003404 15.5233532 44.5003404 10.1477277C44.5003404 9.48554894 44.6332426 8.97278298 44.8995915 8.60908936 45.165583 8.24575319 45.5452596 8.06382979 46.0389617 8.06382979 46.454383 8.06382979 46.7498213 8.19707234 46.9251064 8.46308085 47.1003915 8.72924255 47.188034 9.14808511 47.188034 9.71921702L47.188034 15.5233532 50.7132085 15.5233532 50.7132085 10.1477447C50.7132085 9.48556596 50.8495319 8.9728 51.1223319 8.60910638 51.3949617 8.24577021 51.7777021 8.06384681 52.2714213 8.06384681 52.6999489 8.06384681 52.998434 8.19708936 53.1672681 8.46309787 53.3359149 8.72925957 53.4205106 9.14810213 53.4205106 9.71923404L53.4205106 15.5233532 56.9458553 15.5233532 56.9458553 9.62188936C56.9458553 8.19370213 56.6730553 7.12580426 56.1277787 6.41800851 55.5825532 5.71051915 54.731983 5.35654468 53.5764255 5.35654468zM64.4280851 11.0437447C64.4280851 11.627983 64.2752681 12.0954894 63.9702979 12.4460596 63.6651574 12.7966298 63.2659064 12.9719319 62.7725447 12.9719319 62.344017 12.9719319 62.0257702 12.8519489 61.8181447 12.6116596 61.6103489 12.3715234 61.5065362 12.004783 61.5065362 11.5110809L61.5065362 5.62917447 57.9813617 5.62917447 57.9813617 11.4137362C57.9813617 12.8550128 58.289566 13.9263319 58.9064851 14.6274723 59.5230638 15.3286298 60.4612936 15.679217 61.720817 15.679217 62.4347404 15.679217 63.0550468 15.5105702 63.5809191 15.1727489 63.962383 14.9279489 64.2831149 14.6034043 64.5450213 14.2013447L64.5450213 15.5233362 67.9922723 15.5233362 67.9922723 5.62917447 64.4280851 5.62917447 64.4280851 11.0437447zM75.8076426 5.35654468C75.0414809 5.35654468 74.3631149 5.53523404 73.7724085 5.89210213 73.2758809 6.19218723 72.860783 6.59657872 72.5249702 7.1027234L72.340834 5.62917447 69.0297362 5.62917447C69.0945872 6.09668085 69.1369532 6.57080851 69.1563574 7.05106383 69.1759319 7.53148936 69.185634 8.00529362 69.185634 8.47278298L69.185634 15.5233191 72.7109787 15.5233191 72.7109787 10.0114043C72.7109787 9.42716596 72.8731745 8.95661277 73.1978723 8.59940426 73.5222468 8.24234894 73.9507574 8.06382979 74.4832681 8.06382979 74.9245617 8.06382979 75.2492596 8.19707234 75.4570553 8.46308085 75.6646809 8.72924255 75.7686638 9.16747234 75.7686638 9.77775319L75.7686638 15.5233191 79.2940255 15.5233191 79.2940255 9.62185532C79.2940255 6.77824681 78.1318298 5.35654468 75.8076426 5.35654468z"/>
      <rect width="3.525" height="9.894" x="80.56" y="5.629"/>
      <path d="M91.6050383 12.8356085C91.3451745 12.8356085 91.1050383 12.7869447 90.8844766 12.6894128 90.6635745 12.5920681 90.4852255 12.4363404 90.3489021 12.2220936 90.2125957 12.0078298 90.1443404 11.738434 90.1443404 11.4137362L90.1443404 8.21955745 92.5204596 8.21955745 92.5204596 5.62919149 90.1443404 5.62919149 90.1443404 2.25972766 86.619166 3.38939574 86.619166 5.62919149 84.7687489 5.62919149 84.7687489 8.21955745 86.619166 8.21955745 86.619166 11.4137362C86.619166 12.7253447 86.9598638 13.763966 87.641634 14.5299745 88.323217 15.2963064 89.3458553 15.679217 90.7091915 15.679217 91.033566 15.679217 91.3451745 15.6596426 91.644017 15.6206809 91.9426894 15.5817191 92.2411915 15.5039319 92.540034 15.3870298L92.540034 12.7187234C92.3451745 12.7576851 92.1729532 12.7869617 92.0238638 12.806366 91.874434 12.8257191 91.7347064 12.8356085 91.6050383 12.8356085zM100.850264 5.62915745L98.5483745 11.3412766 96.3317106 5.62915745 92.6701957 5.62915745 96.6985872 14.8393702 96.4486128 15.3869957C96.2927149 15.7113532 96.091217 15.9938723 95.8448 16.2341617 95.5980255 16.4742979 95.2765617 16.6788426 94.8806979 16.8476766 94.4845106 17.0163234 93.9814468 17.1592851 93.3713532 17.2761872L94.1892596 19.9638979C95.0073362 19.8730213 95.7602213 19.6846298 96.4486128 19.3990638 97.1366638 19.1133277 97.7598809 18.6912681 98.318417 18.1332255 98.8764426 17.5746894 99.3633362 16.8214468 99.7790979 15.8738723L104.317055 5.62915745 100.850264 5.62915745 100.850264 5.62915745z"/>
      <circle cx="82.322" cy="2.618" r="1.825" transform="rotate(-45 82.322 2.618)"/>
    </g>
    <g fill="#2D77BD" transform="translate(53.957)">
      <polygon points="7.837 11.105 3.841 1.798 .044 1.798 6.354 15.665 9.256 15.665 15.566 1.798 11.885 1.798"/>
      <rect width="3.525" height="9.894" x="16.199" y="5.771"/>
      <path d="M27.6941277 5.53753191C26.9409021 5.53753191 26.2690043 5.76490213 25.6782979 6.21928511 25.2822638 6.52386383 24.9923404 6.92977021 24.8034723 7.43242553L24.5972936 5.7712 21.2861957 5.7712C21.3510298 6.23868936 21.3934128 6.71281702 21.412817 7.19308936 21.4323915 7.67351489 21.4420766 8.14730213 21.4420766 8.61479149L21.4420766 15.6653277 24.9674383 15.6653277 24.9674383 10.6988596C24.9674383 10.2054809 25.0579745 9.80284255 25.2400681 9.49123404 25.4216511 9.17962553 25.6748936 8.94919149 25.9995915 8.79977872 26.323966 8.65068936 26.7203234 8.57581277 27.1876426 8.57581277 27.7068766 8.57581277 28.2458553 8.7058383 28.8042213 8.9653617L28.8042213 5.75179574C28.674383 5.6869617 28.5184851 5.6348766 28.3367319 5.59591489 28.1548085 5.55693617 27.9405617 5.53753191 27.6941277 5.53753191zM36.1637447 12.977634C35.9038809 12.977634 35.6637447 12.9289702 35.443183 12.8314553 35.2222809 12.7340936 35.0439319 12.578383 34.9076085 12.3641362 34.7713021 12.1498723 34.7030468 11.8804596 34.7030468 11.5557617L34.7030468 8.36156596 37.0791489 8.36156596 37.0791489 5.7712 34.7030468 5.7712 34.7030468 2.40173617 31.1778723 3.53142128 31.1778723 5.77121702 29.3274553 5.77121702 29.3274553 8.36158298 31.1778723 8.36158298 31.1778723 11.5557447C31.1778723 12.8673532 31.5185702 13.9059745 32.2003404 14.671983 32.8819234 15.4383319 33.9045617 15.8212255 35.2678979 15.8212255 35.5922723 15.8212255 35.9038809 15.8016511 36.2027234 15.7626894 36.5013957 15.7237277 36.7998979 15.6459404 37.0987404 15.5290383L37.0987404 12.8607149C36.9038809 12.8996766 36.7316596 12.9289532 36.5825702 12.9483574 36.4331404 12.9677617 36.2934128 12.977634 36.1637447 12.977634zM44.3052426 11.1857702C44.3052426 11.7700085 44.1524255 12.2375149 43.8474553 12.5880851 43.5423149 12.9386723 43.1430638 13.1139574 42.6497021 13.1139574 42.2211745 13.1139574 41.9029277 12.9939915 41.6953021 12.7536851 41.4875064 12.5135489 41.3836936 12.1468085 41.3836936 11.6531064L41.3836936 5.7712 37.8585191 5.7712 37.8585191 11.5557447C37.8585191 12.9970213 38.1667234 14.0683404 38.7836426 14.7694809 39.4002213 15.4706383 40.3384511 15.8212255 41.5979745 15.8212255 42.3118979 15.8212255 42.9322213 15.6525787 43.4580936 15.3147574 43.8395574 15.0699574 44.1602723 14.7454128 44.4221787 14.3433532L44.4221787 15.6653447 47.8694298 15.6653447 47.8694298 5.7712 44.3052596 5.7712 44.3052596 11.1857702 44.3052426 11.1857702zM56.1744681 7.02837447C55.9384 6.64515745 55.6052596 6.31954043 55.1714213 6.05371915 54.5676085 5.68355745 53.8889191 5.49857021 53.136017 5.49857021 52.2919149 5.49857021 51.5420766 5.71947234 50.8865362 6.16074894 50.2306383 6.60238298 49.7146553 7.21589787 49.3381957 8.00129362 48.9614128 8.78702979 48.7733617 9.69904681 48.7733617 10.7376851 48.7733617 11.7637277 48.958366 12.6595574 49.3283234 13.425566 49.6984681 14.1919149 50.2146553 14.782434 50.876834 15.1978553 51.5390128 15.613617 52.2919149 15.8212426 53.136017 15.8212426 53.8889191 15.8212426 54.5676085 15.6459574 55.1714213 15.2953702 55.6052766 15.0434723 55.9384 14.7234723 56.1744681 14.3374809L56.1744681 15.6653447 59.6412936 15.6653447 59.6412936 5.7712 56.1744681 5.7712 56.1744681 7.02837447zM55.6582979 12.5491064C55.3141787 12.977634 54.8370043 13.1918979 54.2267234 13.1918979 53.5904 13.1918979 53.1035064 12.9808681 52.7660426 12.5588085 52.4282213 12.1370894 52.2595745 11.5298723 52.2595745 10.7376681 52.2595745 9.9197617 52.4348596 9.28667234 52.7854468 8.83875745 53.136034 8.39084255 53.6162894 8.1668766 54.2267404 8.1668766 54.8501277 8.1668766 55.3301957 8.38114043 55.668017 8.80948085 56.0054979 9.23800851 56.1744851 9.86803404 56.1744851 10.6988766 56.1744851 11.504017 56.0022468 12.1205787 55.6582979 12.5491064z"/>
      <rect width="3.525" height="14.335" x="60.991" y="1.331"/>
      <circle cx="17.961" cy="2.747" r="1.825" transform="rotate(-45 17.961 2.747)"/>
    </g>
  </g>
</svg>
