<svg xmlns="http://www.w3.org/2000/svg" width="150" height="33" viewBox="0 0 150 33">
  <g fill="none" fill-rule="evenodd">
    <path fill="#F25022" d="M0,0 L15.23795,0 C15.2370348,5.07931666 15.23795,10.1586333 15.2370348,15.23795 C10.1586333,15.23795 5.07931666,15.23795 0,15.23795 L0,0"/>
    <path fill="#80BA01" d="M16.7937767,0 L32.0317267,0 C32.0317267,5.07931666 32.0326419,10.1586333 32.0308115,15.23795 C26.95241,15.2370348 21.8730933,15.23795 16.7946919,15.23795 C16.7928615,10.1586333 16.7937767,5.07931666 16.7937767,0"/>
    <path fill="#FFF" d="M137.411531 5.80597926C138.816351 4.89170226 140.631178 4.80658938 142.21446 5.24222087 142.228188 6.18303844 142.21629 7.1247712 142.220866 8.06650397 141.468578 7.73520439 140.583588 7.51921904 139.791946 7.84411226 139.164124 8.09304454 138.790726 8.73733984 138.6928 9.38163514 138.574741 10.1989018 138.651617 11.0271507 138.631483 11.8489933 140.23856 11.8526541 141.845638 11.8499085 143.452715 11.8508237 143.464613 10.8075046 143.439902 9.76327029 143.466443 8.71995119 144.559182 8.40878585 145.640024 8.06009762 146.727273 7.73245882 146.736425 9.10707749 146.71446 10.4826113 146.73917 11.8581452 147.825503 11.8425869 148.912752 11.8544844 150 11.8508237L150 14.5268456C148.909091 14.4820012 147.817267 14.5149481 146.726358 14.5112874 146.730933 16.0497254 146.727273 17.5881635 146.728188 19.1275168 146.745577 19.9795607 146.682428 20.8361806 146.782184 21.685479 146.842587 22.1860891 147.02471 22.7406955 147.494204 22.9996949 148.280354 23.4399024 149.277913 23.247712 150 22.7644905L150 25.4670531C149.058267 25.876144 148.005796 26.0006101 146.987187 25.9283099 146.020744 25.856925 145.019524 25.5054912 144.388957 24.7367297 143.660464 23.8682123 143.472849 22.6921904 143.458206 21.5921293 143.449969 19.2309335 143.459121 16.8697376 143.454545 14.5076266 141.846553 14.5067114 140.23856 14.5057962 138.631483 14.5085418 138.629652 18.214155 138.630567 21.9197682 138.630567 25.6253813 137.532337 25.6253813 136.433191 25.6253813 135.33496 25.6253813 135.33496 21.9206833 135.330384 18.2169005 135.336791 14.5122026 134.572605 14.4975595 133.807505 14.5158633 133.043319 14.5003051 133.046065 13.6208054 133.049725 12.7403905 133.041489 11.8599756 133.802013 11.8425869 134.563453 11.8499085 135.325808 11.8553996 135.381635 10.685784 135.203173 9.48230628 135.552776 8.34289201 135.848383 7.31421599 136.505491 6.3862111 137.411531 5.80597926M66.8520439 5.99816962C67.5164735 5.89749847 68.2358145 6.12446614 68.676022 6.6442953 69.1921904 7.21354484 69.2873703 8.11958511 68.90482 8.78492984 68.4820012 9.53538743 67.5356925 9.88407566 66.7111043 9.70378279 65.8553996 9.55003051 65.1424649 8.75472849 65.180903 7.86790726 65.1561928 6.93441123 65.9368517 6.10250153 66.8520439 5.99816962M41.5954851 6.40634533C43.1934106 6.40634533 44.790421 6.40634533 46.3883466 6.40634533 47.8801098 10.1943258 49.3828554 13.9786455 50.8764491 17.766626 51.2580842 18.7138499 51.6150092 19.6720561 52.0149481 20.6119585 53.9341062 15.8785845 55.88072 11.157108 57.7852349 6.41732764 59.3218426 6.39261745 60.8593655 6.41183649 62.3968883 6.40817572 62.3932276 12.8136059 62.395058 19.219036 62.3959732 25.6244661 61.2867602 25.6217206 60.1784625 25.6336181 59.0701647 25.6180598 59.0820622 20.8910921 59.0692495 16.1641245 59.0756559 11.4362416 59.0774863 11.223917 59.0701647 11.0115924 59.0555217 10.7992678 58.990543 10.8981086 58.9328859 11.0006101 58.8825503 11.1067724 56.9780354 15.9453935 55.0369128 20.7702868 53.1433801 25.6134838 52.3544844 25.6418548 51.5646736 25.6153142 50.7748627 25.6281269 48.8099451 20.7895058 46.8697376 15.9399024 44.9148871 11.0976205 44.8636364 10.9969494 44.8087248 10.8990238 44.7492373 10.804759 44.7089689 12.8758389 44.742831 14.9487492 44.7318487 17.0198292 44.7327639 19.8880415 44.7300183 22.7562538 44.7327639 25.6244661 43.6866992 25.6272117 42.6406345 25.6244661 41.5954851 25.6253813 41.5944283 19.219036 41.5936547 12.8126907 41.5954851 6.40634533M75.9215985 11.838011C77.5122026 11.3849908 79.2272727 11.4032947 80.8169616 11.8526541 81.1446004 11.9441733 81.4621721 12.071385 81.7568639 12.2443563 81.7385601 13.2940818 81.7568639 14.3447224 81.7467968 15.395363 80.6842587 14.5835876 79.3361806 14.0692495 77.9853569 14.2394753 76.9127517 14.3364857 75.8895668 14.8929225 75.2480171 15.7596095 74.4234289 16.8340451 74.2330689 18.2608298 74.3749237 19.5750458 74.481086 20.6037218 74.9066504 21.6314826 75.7065284 22.3133008 76.5375229 23.0518609 77.7025625 23.3136059 78.7898109 23.2312386 79.8642465 23.1076876 80.8782794 22.6528371 81.7467968 22.0176937 81.7559487 23.0125076 81.7422209 24.0073215 81.7541184 25.0021354 80.4069555 25.8038438 78.7916412 26.0106772 77.2495424 25.9347163 75.6717511 25.8514338 74.0985357 25.2538133 72.9563758 24.1446004 71.7153752 22.9484442 71.0417938 21.2425259 70.9621721 19.5338621 70.8816351 17.7574741 71.2431361 15.9042099 72.2654057 14.4206833 73.1220256 13.1549725 74.461867 12.2589994 75.9215985 11.838011M102.967358 12.1574131C104.241306 12.7321538 105.273642 13.7946919 105.845638 15.066809 106.456071 16.4212935 106.604332 17.9423429 106.500915 19.4112264 106.399329 20.8453325 105.949054 22.2821843 105.052166 23.4215985 104.134228 24.6314826 102.750458 25.4514948 101.268761 25.7562538 100.002135 26.0198292 98.6769372 26.018914 97.4103112 25.752593 95.8947529 25.428615 94.4917633 24.5491153 93.6031117 23.2696766 92.5597926 21.7870653 92.2632703 19.9017694 92.3959732 18.1253813 92.485662 16.6180598 92.9542404 15.0988408 93.9170226 13.9164124 94.971324 12.5921293 96.5884686 11.8105552 98.2495424 11.6009762 99.8309945 11.3996339 101.49939 11.4893228 102.967358 12.1574131zM99.4454851 14.2079872L99.2324588 14.2165955C98.4444783 14.2605247 97.6482611 14.5268456 97.0643685 15.0723002 96.2589994 15.8017084 95.8910921 16.8889567 95.7913362 17.9460037 95.6815131 19.1082977 95.7611348 20.3337401 96.2919463 21.3935326 96.704698 22.2162904 97.4633923 22.8624161 98.3575351 23.0976205 99.2361196 23.3255034 100.192495 23.3062843 101.043624 22.9795607 101.771202 22.6958511 102.347773 22.0973154 102.662599 21.3889567 103.138499 20.338316 103.185174 19.1568029 103.126602 18.0228798 103.045149 16.9868822 102.750458 15.9005491 101.989018 15.1519219 101.276998 14.4316656 100.222697 14.1516168 99.2324588 14.2165955zM111.920683 11.628432C113.444478 11.3602807 115.039658 11.557047 116.482001 12.1034167 116.483832 13.1137889 116.482001 14.1232459 116.482916 15.1327029 115.47529 14.4399024 114.244356 14.0674192 113.02166 14.1104332 112.405735 14.1342282 111.728493 14.395058 111.447529 14.980781 111.224222 15.5600976 111.37889 16.3197071 111.925259 16.666565 112.859671 17.2916412 113.974375 17.557047 114.942648 18.1171446 115.705003 18.5454545 116.444478 19.1055522 116.830689 19.9127517 117.556437 21.4246492 117.248932 23.4225137 115.973154 24.5500305 114.755034 25.6885296 113.00061 26.0033557 111.387126 25.942953 110.241306 25.8688225 109.089994 25.64277 108.036608 25.1741916 108.041184 24.1116534 108.030201 23.0500305 108.042099 21.9884076 108.928005 22.6317877 109.950275 23.0921293 111.032032 23.2788286 111.785235 23.4014643 112.604332 23.4069555 113.306284 23.0701647 113.978035 22.7361196 114.098841 21.7815741 113.699817 21.1976815 113.326419 20.747407 112.778218 20.4993899 112.261135 20.2559487 111.290116 19.8194021 110.269677 19.4542404 109.416718 18.799878 108.817267 18.3322148 108.363331 17.6732764 108.185784 16.9301403 107.922209 15.8346553 108.004576 14.600061 108.64155 13.64277 109.369128 12.5271507 110.633008 11.8581452 111.920683 11.628432M129.408176 12.2608298C130.716901 12.9151922 131.731849 14.0976205 132.238865 15.4649176 132.635143 16.5109823 132.774253 17.6403295 132.751373 18.7541184 132.754118 20.4179378 132.304759 22.1256864 131.260525 23.4453935 130.283099 24.7230018 128.787675 25.5530811 127.208969 25.8139109 125.66504 26.0637584 124.034167 25.9987797 122.567114 25.4212935 121.080842 24.8364857 119.845333 23.643075 119.219341 22.1732764 118.566809 20.6751068 118.49817 18.9893228 118.701342 17.3886516 118.914582 15.7879805 119.639414 14.2230018 120.874924 13.1586333 121.887126 12.2699817 123.19036 11.766626 124.516473 11.5964002 126.161074 11.3923124 127.907261 11.5030506 129.408176 12.2608298zM128.04637 14.9981696C127.330689 14.3694326 126.336791 14.1543624 125.40604 14.2193411 124.494509 14.2705918 123.590299 14.6632093 123.000915 15.3733984 122.35479 16.1339231 122.077486 17.137889 122.002441 18.1162294 121.924649 19.1266016 122.002441 20.1726663 122.393228 21.1171446 122.718121 21.909701 123.33496 22.5988408 124.131178 22.9356315 124.868822 23.2532032 125.699817 23.3099451 126.488713 23.1918853 127.223612 23.0838926 127.935631 22.7324588 128.414277 22.1558877 128.889262 21.5820622 129.140024 20.8590604 129.266321 20.1342282 129.425564 19.1613789 129.427395 18.1592434 129.238865 17.1909701 129.071385 16.3654667 128.706223 15.5454545 128.04637 14.9981696zM89.1259915 12.0622331C90.0356925 11.5158633 91.1915802 11.4701037 92.1845638 11.8041489 92.1799878 12.9032947 92.1845638 14.0024405 92.1818182 15.1015863 91.5320317 14.6805979 90.7211714 14.5003051 89.9542404 14.5780964 89.018914 14.6842587 88.2776083 15.4026846 87.8932276 16.2263575 87.4758999 17.0985357 87.3971934 18.0851129 87.423734 19.0387431 87.423734 21.2342892 87.4246492 23.4298353 87.423734 25.6253813 86.3401464 25.6253813 85.2574741 25.6253813 84.1748017 25.6253813 84.1720561 21.0366077 84.1784625 16.4469189 84.1720561 11.8581452 85.2565589 11.8444173 86.3410616 11.8499085 87.4255644 11.8553996 87.4209884 12.6433801 87.4255644 13.4313606 87.4228188 14.2202563 87.7751678 13.3627212 88.2995729 12.5298963 89.1259915 12.0622331M65.4801708 11.8553996C66.5729103 11.8508237 67.666565 11.8398414 68.7593045 11.8608908 68.7464918 16.4487492 68.7583893 21.0375229 68.7538133 25.6253813 67.6629042 25.6253813 66.5719951 25.6253813 65.4820012 25.6253813 65.4792556 21.0356925 65.4829164 16.4460037 65.4801708 11.8553996"/>
    <path fill="#02A4EF" d="M0,16.7928615 C5.07931666,16.7946919 10.1586333,16.7919463 15.23795,16.7946919 C15.2388652,21.8740085 15.23795,26.95241 15.23795,32.0317267 L0,32.0317267 L0,16.7928615"/>
    <path fill="#FFB902" d="M16.7946919,16.7946919 C21.8730933,16.7928615 26.95241,16.7937767 32.0317267,16.7937767 C32.0317267,21.8730933 32.0317267,26.95241 32.0317267,32.0317267 L16.7937767,32.0317267 C16.7946919,26.95241 16.7928615,21.8730933 16.7946919,16.7946919"/>
  </g>
</svg>
