<svg xmlns="http://www.w3.org/2000/svg" width="30" height="22" viewBox="0 0 30 22">
  <path fill="#FFF" d="M22.7172954,2.57222606 C21.8855539,1.62559569 20.7004001,1.02246439 19.3887735,1.00060942 C16.8704328,0.958647591 14.8285318,3.08891825 14.8285318,5.75850063 C14.8285318,6.1373787 14.8688742,6.50684003 14.9466693,6.86151306 C11.156711,6.6154219 7.79651538,4.63979359 5.54745704,1.66176708 C5.15492485,2.3753696 4.92998568,3.20941492 4.92998568,4.10285939 C4.92998568,5.7942258 5.73505454,7.29530144 6.95866141,8.1815988 C6.21116098,8.14856298 5.50800378,7.9220371 4.89319967,7.55041763 C4.89275513,7.57072979 4.89275513,7.59104679 4.89275513,7.61172022 C4.89275513,9.97371988 6.46466209,11.9552545 8.55079511,12.4168508 C8.16815402,12.5253917 7.76528618,12.5821955 7.34941543,12.579435 C7.05557197,12.5774844 6.76984142,12.5448642 6.49144586,12.4862935 C7.07168668,14.423373 8.75572981,15.8368787 10.751287,15.8836159 C9.19060481,17.1805086 7.22438748,17.9528976 5.08779874,17.9484855 C4.71971645,17.9477254 4.35674642,17.9239157 4,17.8781078 C6.01811782,19.2642893 8.41509811,20.071362 10.9903404,20.0720388 C19.3781044,20.0742413 23.9650188,12.7671111 23.9650188,6.42906739 C23.9650188,6.22112279 23.9604622,6.01429058 23.9517936,5.80845702 C24.8427705,5.14385943 25.6158323,4.31060179 26.2271912,3.35909715 C25.4094528,3.72810734 24.5304785,3.9731874 23.6081612,4.07599101 C24.5495939,3.49597612 25.2727555,2.5676818 25.613165,1.45448982 C24.731968,1.98943617 23.7560832,2.37306321 22.7172954,2.57222606 Z"/>
</svg>
