<svg xmlns="http://www.w3.org/2000/svg" width="30" height="22" viewBox="0 0 30 22">
  <path fill="#FFF" d="M28.0396072,5.14854459 C28.0396072,5.14854459 27.7725554,3.2644443 26.9534952,2.43449235 C25.9153311,1.34571205 24.7509243,1.34054763 24.2171241,1.27675191 C20.3952479,1 14.6621301,1 14.6621301,1 L14.6499914,1 C14.6499914,1 8.91717712,1 5.09499742,1.27675191 C4.56119717,1.34054763 3.39739733,1.34571205 2.35862631,2.43449235 C1.53956614,3.2644443 1.27312122,5.14854459 1.27312122,5.14854459 C1.27312122,5.14854459 1,7.36104095 1,9.57353734 L1,11.6481134 C1,13.8603059 1.27312122,16.0728023 1.27312122,16.0728023 C1.27312122,16.0728023 1.53956614,17.9569026 2.35862631,18.7868546 C3.39739733,19.8759386 4.76209301,19.8410029 5.36993944,19.9552276 C7.55521265,20.1651459 14.6560608,20.2301568 14.6560608,20.2301568 C14.6560608,20.2301568 20.3952479,20.2213469 24.2171241,19.9448988 C24.7509243,19.8811031 25.9153311,19.8759386 26.9534952,18.7868546 C27.7725554,17.9569026 28.0396072,16.0728023 28.0396072,16.0728023 C28.0396072,16.0728023 28.3121215,13.8603059 28.3121215,11.6481134 L28.3121215,9.57353734 C28.3121215,7.36104095 28.0396072,5.14854459 28.0396072,5.14854459 Z M11.8365394,14.161361 L11.8353255,6.47944484 L19.2150608,10.3336177 L11.8365394,14.161361 Z"/>
</svg>
